 http://img546.imageshack.us/img546/1115/jqzco5sdr5hihp0p06x.jpg

Country.......: USA
Genre.........: Thriller
Date release..: 2010 [World]
Director......: Joe O Brien
Writers.......: Joe O Brien
Duration......: 91 min.
More..........: http://www.imdb.com/title/tt1230372
Trailer.......:

Pilot :
After a shocking photo of a young woman is found inside the twisted metal of a fatal car crash, veteran detective Emory Lloyd must risk everything to identify and find the woman before it's too late. 

Cats :
Devon Sawa   	 ...  	Zeth Arnold
Judd Nelson 	... 	Emory Lane
Joey Lauren Adams 	... 	Sirena Lane
Tom Arnold 	... 	Simon
Clare Kramer 	... 	Daphne
Stuart Stone 	... 	Seacrest
Brett Rice 	... 	Rodney
Susan Gallagher 	... 	Supporting
Dennis Neal 	... 	Captain
Tyler Cravens 	... 	Macey
Bjorn Jiskoot Jr. 	... 	Supporting
Michael Ray Davis 	... 	Doctor Eaves
Lacey Varn 	... 	Natalie
Philip Nolen 	... 	Chastain
Ginger King 	... 	Ms. Thomas 

Data Technical :
!!! SAMPLE !!!
Audio.....: English
Subtitles.: None
Format                           : AVI
Format/Info                      : Audio Video Interleave
File size                        : 697 MiB
Duration                         : 1h 31mn
Overall bit rate                 : 1 067 Kbps
Writing application              : VirtualDubMod 1.5.10.2 (build 2540/release)
Writing library                  : VirtualDubMod build 2540/release
Video
ID                               : 0
Format                           : MPEG-4 Visual
Format profile                   : Advanced Simple@L5
Format settings, BVOP            : Yes
Format settings, QPel            : No
Format settings, GMC             : No warppoints
Format settings, Matrix          : Default (H.263)
Muxing mode                      : Packed bitstream
Codec ID                         : XVID
Codec ID/Hint                    : XviD
Duration                         : 1h 31mn
Bit rate                         : 928 Kbps
Width                            : 624 pixels
Height                           : 352 pixels
Display aspect ratio             : 16:9
Frame rate                       : 23.976 fps
Color space                      : YUV
Chroma subsampling               : 4:2:0
Bit depth                        : 8 bits
Scan type                        : Progressive
Bits/(Pixel*Frame)               : 0.176
Stream size                      : 606 MiB (87%)
Writing library                  : XviD 1.2.1 (UTC 2008-12-04)
Audio
ID                               : 1
Format                           : MPEG Audio
Format version                   : Version 1
Format profile                   : Layer 3
Mode                             : Joint stereo
Mode extension                   : MS Stereo
Codec ID                         : 55
Codec ID/Hint                    : MP3
Duration                         : 1h 31mn
Bit rate mode                    : Variable
Bit rate                         : 128 Kbps
Channel(s)                       : 2 channels
Sampling rate                    : 48.0 KHz
Stream size                      : 82.4 MiB (12%)
Alignment                        : Aligned on interleaves
Interleave, duration             : 24 ms (0.58 video frame)
Interleave, preload duration     : 146 ms
Writing library                  : LAME3.90.
Encoding settings                : -m j -V 4 -q 2 -lowpass 17.6 --abr 128

Screen : 
http://img546.imageshack.us/img546/8769/endure2010s1.jpg 
http://img710.imageshack.us/img710/4241/endure2010s2.jpg 
http://img683.imageshack.us/img683/7200/endure2010s3.jpg 
http://img155.imageshack.us/img155/9289/endure2010s4.jpg 
http://img864.imageshack.us/img864/7150/endure2010s5.jpg